<svg width="48" height="48" viewBox="0 0 48 48" fill="none" xmlns="http://www.w3.org/2000/svg">
<rect width="48" height="48" rx="24" fill="white"/>
<g clip-path="url(#clip0_748_282)">
<path fill-rule="evenodd" clip-rule="evenodd" d="M24.0001 26.1221L29.3031 31.4251C29.5845 31.7065 29.9661 31.8646 30.3641 31.8646C30.762 31.8646 31.1437 31.7065 31.4251 31.4251C31.7065 31.1437 31.8646 30.7621 31.8646 30.3641C31.8646 29.9662 31.7065 29.5845 31.4251 29.3031L26.1201 24.0001L31.4241 18.6971C31.5634 18.5578 31.6738 18.3924 31.7492 18.2104C31.8245 18.0283 31.8633 17.8333 31.8632 17.6363C31.8632 17.4393 31.8243 17.2442 31.7489 17.0622C31.6735 16.8802 31.5629 16.7149 31.4236 16.5756C31.2843 16.4363 31.1189 16.3259 30.9368 16.2505C30.7548 16.1752 30.5597 16.1364 30.3627 16.1365C30.1657 16.1365 29.9707 16.1754 29.7887 16.2508C29.6067 16.3262 29.4414 16.4368 29.3021 16.5761L24.0001 21.8791L18.6971 16.5761C18.5588 16.4328 18.3933 16.3184 18.2104 16.2397C18.0274 16.161 17.8306 16.1196 17.6314 16.1177C17.4322 16.1159 17.2347 16.1538 17.0503 16.2291C16.866 16.3044 16.6984 16.4157 16.5575 16.5565C16.4166 16.6973 16.3052 16.8647 16.2296 17.049C16.1541 17.2333 16.1161 17.4308 16.1177 17.63C16.1194 17.8292 16.1606 18.026 16.2392 18.2091C16.3177 18.3921 16.4319 18.5577 16.5751 18.6961L21.8801 24.0001L16.5761 29.3041C16.4329 29.4425 16.3187 29.6081 16.2402 29.7912C16.1616 29.9742 16.1204 30.1711 16.1187 30.3702C16.1171 30.5694 16.1551 30.7669 16.2306 30.9512C16.3062 31.1355 16.4176 31.3029 16.5585 31.4437C16.6994 31.5845 16.867 31.6958 17.0513 31.7711C17.2357 31.8464 17.4332 31.8843 17.6324 31.8825C17.8316 31.8807 18.0284 31.8392 18.2114 31.7605C18.3943 31.6818 18.5598 31.5674 18.6981 31.4241L24.0001 26.1221Z" fill="#BD0D0D"/>
</g>
<defs>
<clipPath id="clip0_748_282">
<rect width="24" height="24" fill="white" transform="translate(12 12)"/>
</clipPath>
</defs>
</svg>
