<svg width="124" height="177" viewBox="0 0 124 177" fill="none" xmlns="http://www.w3.org/2000/svg">
<path d="M69.7244 40.1986C67.8541 36.8073 68.5114 33.3138 71.5014 30.5948C74.1097 28.2289 77.2948 27.1268 80.6834 26.5439C94.4373 24.1908 105.545 33.2159 106.317 47.2026C106.783 55.6321 104.654 63.4318 100.506 70.589C92.9445 83.6268 83.7922 95.5412 73.2785 106.294C65.5808 114.166 59.5033 114.038 51.4622 106.49C48.3322 103.549 45.5331 100.252 42.2505 96.7582C41.5592 97.6007 40.9357 98.5581 40.1214 99.2942C39.1884 100.141 38.1748 101.12 37.0254 101.452C35.6513 101.847 33.7258 102.166 32.7419 101.49C31.8937 100.907 31.512 98.7411 31.8385 97.5241C32.4323 95.3199 33.6665 93.2774 34.714 91.2094C35.1212 90.4052 35.7573 89.7202 36.3553 88.8904C34.2136 86.0182 32.0591 83.2183 29.9979 80.3588C24.9171 73.2995 20.6759 65.8317 18.7844 57.2065C16.0701 44.8283 20.4851 33.5436 30.7104 28.2332C49.8293 18.2974 66.9041 33.2925 66.9889 49.2494C67.027 56.3044 65.3772 62.985 61.8953 68.9848C58.2098 75.3292 53.8838 81.3077 49.7275 87.367C48.9048 88.567 48.6249 89.3287 49.7912 90.3925C52.1916 92.5753 54.3461 95.0689 56.9162 97.0177C60.4533 99.7027 63.8674 99.6006 67.5021 97.0475C69.1688 95.8774 70.8864 94.6093 72.1249 93.0221C78.4738 84.8863 84.8736 76.776 90.8494 68.3635C94.2211 63.6148 96.1465 58.0788 96.8293 52.1726C97.5885 45.624 94.7257 39.6157 89.2081 36.5562C83.614 33.4542 76.8791 34.1776 71.828 38.42C71.1324 39.0072 70.4369 39.5944 69.7286 40.1944L69.7244 40.1986ZM42.365 81.0694C47.0811 76.2526 53.3834 66.27 55.5294 59.9979C56.3946 57.4703 57.0774 54.8279 57.404 52.1854C58.1886 45.8197 56.1189 40.4965 50.5843 37.0413C45.2744 33.7266 39.6634 33.7053 34.379 37.1009C28.9207 40.6114 26.8425 45.8623 27.6144 52.279C28.9843 63.6616 35.681 72.2613 42.3607 81.0694H42.365Z" fill="#BD0D0D"/>
<path d="M97.3637 10.0466C97.3383 15.6081 92.9318 19.9526 87.3505 19.9228C81.7989 19.8931 77.4687 15.4719 77.5068 9.87641C77.545 4.2979 81.9388 -0.033842 87.5243 0.000199257C93.0844 0.0342405 97.3934 4.42981 97.368 10.0466H97.3637Z" fill="#BD0D0D"/>
<path d="M32.9031 10.0126C32.8862 4.37873 37.1782 0.017192 42.7595 0.000171429C48.3196 -0.0168492 52.7515 4.37021 52.7727 9.91468C52.7939 15.4634 48.3959 19.9015 42.857 19.9228C37.263 19.9441 32.9201 15.6208 32.9031 10.0126Z" fill="#BD0D0D"/>
<path d="M15.9148 169.559C11.6588 169.559 8.25075 168.759 5.69075 167.159C3.13075 165.527 1.85075 163.047 1.85075 159.719C1.85075 157.959 2.15475 156.615 2.76275 155.687C3.37075 154.759 4.26675 154.295 5.45075 154.295C6.31475 154.295 7.01875 154.519 7.56275 154.967C8.10675 155.415 8.37875 155.991 8.37875 156.695C8.37875 157.335 8.33075 157.895 8.23475 158.375C8.23475 158.503 8.20275 158.727 8.13875 159.047C8.10675 159.367 8.09075 159.703 8.09075 160.055C8.09075 161.495 8.81075 162.567 10.2508 163.271C11.7228 163.975 13.7708 164.327 16.3948 164.327C19.1148 164.327 21.2428 163.847 22.7788 162.887C24.3148 161.895 25.0828 160.519 25.0828 158.759C25.0828 157.671 24.7308 156.743 24.0268 155.975C23.3228 155.175 22.4428 154.519 21.3868 154.007C20.3308 153.463 18.8428 152.807 16.9228 152.039C14.4588 151.079 12.4428 150.167 10.8748 149.303C9.33875 148.439 8.01075 147.271 6.89075 145.799C5.80275 144.295 5.25875 142.439 5.25875 140.231C5.25875 137.927 5.86675 135.879 7.08275 134.087C8.33075 132.295 10.1068 130.903 12.4108 129.911C14.7468 128.919 17.4828 128.423 20.6188 128.423C22.9548 128.423 25.0988 128.775 27.0508 129.479C29.0028 130.151 30.5548 131.191 31.7068 132.599C32.8908 134.007 33.4828 135.735 33.4828 137.783C33.4828 139.799 33.1788 141.319 32.5708 142.343C31.9628 143.367 31.0668 143.879 29.8828 143.879C29.0508 143.879 28.3468 143.623 27.7708 143.111C27.2268 142.599 26.9548 141.991 26.9548 141.287C26.9548 140.679 27.0028 140.119 27.0988 139.607C27.1948 138.647 27.2428 138.039 27.2428 137.783C27.2428 136.439 26.5868 135.415 25.2748 134.711C23.9628 134.007 22.3308 133.655 20.3788 133.655C17.6268 133.655 15.5148 134.167 14.0428 135.191C12.6028 136.183 11.8828 137.591 11.8828 139.415C11.8828 140.631 12.2508 141.671 12.9868 142.535C13.7548 143.399 14.6988 144.119 15.8188 144.695C16.9388 145.271 18.5068 145.959 20.5228 146.759C22.9548 147.751 24.9068 148.647 26.3788 149.447C27.8508 150.247 29.0988 151.335 30.1228 152.711C31.1788 154.087 31.7068 155.783 31.7068 157.799C31.7068 161.575 30.2668 164.487 27.3868 166.535C24.5388 168.551 20.7148 169.559 15.9148 169.559ZM63.0793 158.471C63.4953 158.471 63.8153 158.663 64.0393 159.047C64.2953 159.431 64.4233 159.959 64.4233 160.631C64.4233 161.911 64.1193 162.903 63.5113 163.607C62.0713 165.367 60.6153 166.775 59.1433 167.831C57.6713 168.887 55.9273 169.415 53.9113 169.415C51.4473 169.415 49.4633 168.711 47.9593 167.303C46.4553 165.895 45.7032 164.023 45.7032 161.687C45.7032 160.439 46.3433 159.543 47.6233 158.999C49.0313 158.391 50.0393 157.751 50.6473 157.079C51.2553 156.375 51.5593 155.527 51.5593 154.535C51.5593 153.959 51.4313 153.527 51.1753 153.239C50.9513 152.951 50.6633 152.807 50.3113 152.807C49.4473 152.807 48.4873 153.431 47.4313 154.679C46.4073 155.927 45.4473 157.543 44.5513 159.527C43.6553 161.479 42.9513 163.495 42.4393 165.575C42.0873 167.079 41.6713 168.103 41.1913 168.647C40.7433 169.159 40.0233 169.415 39.0312 169.415C38.0393 169.415 37.3033 169.063 36.8233 168.359C36.3753 167.623 36.0713 166.503 35.9113 164.999C35.7513 163.495 35.6713 161.287 35.6713 158.375C35.6713 153.447 36.1673 148.311 37.1593 142.967C38.1833 137.623 39.6713 133.143 41.6233 129.527C43.6073 125.879 45.9753 124.055 48.7273 124.055C50.1993 124.055 51.3833 124.695 52.2793 125.975C53.2073 127.223 53.6713 128.855 53.6713 130.871C53.6713 134.103 52.7273 137.463 50.8393 140.951C48.9513 144.407 45.8793 148.455 41.6233 153.095C41.5273 154.759 41.4793 156.471 41.4793 158.231C43.0153 154.231 44.7753 151.335 46.7593 149.543C48.7433 147.719 50.5993 146.807 52.3273 146.807C53.9273 146.807 55.2073 147.351 56.1673 148.439C57.1593 149.527 57.6553 150.871 57.6553 152.471C57.6553 154.231 57.2073 155.847 56.3113 157.319C55.4153 158.791 53.8793 160.103 51.7033 161.255C51.8313 162.119 52.2153 162.823 52.8553 163.367C53.5273 163.879 54.3273 164.135 55.2553 164.135C56.2473 164.135 57.2073 163.751 58.1353 162.983C59.0633 162.215 60.2793 160.935 61.7833 159.143C62.1673 158.695 62.5993 158.471 63.0793 158.471ZM47.7193 128.807C47.1433 128.807 46.5033 129.639 45.7993 131.303C45.0953 132.935 44.4073 135.159 43.7353 137.975C43.0953 140.759 42.5673 143.799 42.1513 147.095C44.1353 144.759 45.7673 142.215 47.0473 139.463C48.3593 136.711 49.0153 134.215 49.0153 131.975C49.0153 130.951 48.9033 130.167 48.6793 129.623C48.4553 129.079 48.1353 128.807 47.7193 128.807ZM68.666 169.415C66.778 169.415 65.162 168.951 63.818 168.023C62.506 167.063 61.514 165.815 60.842 164.279C60.17 162.743 59.834 161.095 59.834 159.335C59.834 156.903 60.282 154.743 61.178 152.855C62.106 150.935 63.354 149.447 64.922 148.391C66.49 147.303 68.25 146.759 70.202 146.759C72.09 146.759 73.706 147.239 75.05 148.199C76.394 149.127 77.402 150.359 78.074 151.895C78.746 153.431 79.082 155.079 79.082 156.839C79.082 159.271 78.618 161.447 77.69 163.367C76.762 165.255 75.498 166.743 73.898 167.831C72.33 168.887 70.586 169.415 68.666 169.415ZM69.194 164.231C70.282 164.231 71.194 163.639 71.93 162.455C72.698 161.271 73.082 159.543 73.082 157.271C73.082 155.511 72.762 154.183 72.122 153.287C71.482 152.391 70.714 151.943 69.818 151.943C68.666 151.943 67.706 152.535 66.938 153.719C66.202 154.871 65.834 156.599 65.834 158.903C65.834 160.727 66.154 162.071 66.794 162.935C67.434 163.799 68.234 164.231 69.194 164.231ZM90.9976 170.471C89.3336 170.471 88.0536 170.087 87.1576 169.319C86.2936 168.551 85.8616 167.687 85.8616 166.727C85.8616 165.895 86.1656 165.175 86.7736 164.567C87.3816 163.959 88.2776 163.655 89.4616 163.655C89.8776 163.655 90.3576 163.703 90.9016 163.799C91.4776 163.863 91.9096 163.911 92.1976 163.943C92.1656 163.111 91.9736 162.327 91.6216 161.591C91.3016 160.855 90.8856 160.151 90.3736 159.479C89.8616 158.775 89.3816 158.167 88.9336 157.655C87.9416 159.543 86.9496 161.111 85.9576 162.359C84.9976 163.607 83.9416 164.791 82.7896 165.911C82.2136 166.487 81.6056 166.775 80.9656 166.775C80.4536 166.775 80.0376 166.599 79.7176 166.247C79.3976 165.863 79.2376 165.399 79.2376 164.855C79.2376 164.215 79.4616 163.623 79.9096 163.079L80.5336 162.311C82.2936 160.135 83.6216 158.343 84.5176 156.935C85.0616 156.007 85.7016 154.775 86.4376 153.239C87.1736 151.671 87.8936 150.055 88.5976 148.391C89.2056 146.983 90.4696 146.279 92.3896 146.279C93.2856 146.279 93.9096 146.359 94.2616 146.519C94.6136 146.679 94.7896 146.935 94.7896 147.287C94.7896 147.479 94.7256 147.783 94.5976 148.199C94.4696 148.615 94.2936 149.031 94.0696 149.447C93.4936 150.599 93.2056 151.575 93.2056 152.375C93.2056 152.855 93.3656 153.383 93.6856 153.959C94.0376 154.535 94.5656 155.255 95.2696 156.119C96.2936 157.463 97.0616 158.615 97.5736 159.575C98.1176 160.503 98.3896 161.527 98.3896 162.647C98.3896 162.967 98.3576 163.415 98.2936 163.991C99.8616 163.383 101.702 161.767 103.814 159.143C104.198 158.695 104.63 158.471 105.11 158.471C105.526 158.471 105.846 158.663 106.07 159.047C106.326 159.431 106.454 159.959 106.454 160.631C106.454 161.847 106.15 162.839 105.542 163.607C103.942 165.591 102.406 166.951 100.934 167.687C99.4936 168.391 97.7016 168.775 95.5576 168.839C94.2776 169.927 92.7576 170.471 90.9976 170.471ZM119.546 146.807C120.57 146.807 121.338 147.079 121.85 147.623C122.394 148.135 122.666 148.903 122.666 149.927C122.666 150.759 122.49 152.327 122.138 154.631C121.818 156.583 121.562 158.439 121.37 160.199C121.178 161.927 121.082 163.863 121.082 166.007C121.082 167.223 120.826 168.103 120.314 168.647C119.834 169.159 119.034 169.415 117.914 169.415C116.858 169.415 116.09 169.143 115.61 168.599C115.13 168.055 114.89 167.239 114.89 166.151C114.89 164.871 115.114 162.759 115.562 159.815C115.946 157.255 116.138 155.623 116.138 154.919C116.138 154.407 115.962 154.151 115.61 154.151C115.194 154.151 114.602 154.695 113.834 155.783C113.066 156.839 112.298 158.247 111.53 160.007C110.762 161.767 110.138 163.623 109.658 165.575C109.306 167.079 108.89 168.103 108.41 168.647C107.962 169.159 107.242 169.415 106.25 169.415C105.258 169.415 104.522 169.063 104.042 168.359C103.594 167.623 103.29 166.503 103.13 164.999C102.97 163.495 102.89 161.287 102.89 158.375C102.89 153.447 103.386 148.311 104.378 142.967C105.402 137.623 106.89 133.143 108.842 129.527C110.826 125.879 113.194 124.055 115.946 124.055C117.418 124.055 118.602 124.695 119.498 125.975C120.426 127.223 120.89 128.855 120.89 130.871C120.89 134.103 119.946 137.463 118.058 140.951C116.17 144.407 113.098 148.455 108.842 153.095C108.746 154.759 108.698 156.471 108.698 158.231C109.754 155.511 110.922 153.303 112.202 151.607C113.514 149.879 114.794 148.647 116.042 147.911C117.322 147.175 118.49 146.807 119.546 146.807ZM114.938 128.807C114.362 128.807 113.722 129.639 113.018 131.303C112.314 132.935 111.626 135.159 110.954 137.975C110.314 140.759 109.786 143.799 109.37 147.095C111.354 144.759 112.986 142.215 114.266 139.463C115.578 136.711 116.234 134.215 116.234 131.975C116.234 130.951 116.122 130.167 115.898 129.623C115.674 129.079 115.354 128.807 114.938 128.807Z" fill="#BD0D0D"/>
</svg>
