<svg width="200" height="60" viewBox="0 0 200 60" fill="none" xmlns="http://www.w3.org/2000/svg">
<path d="M198.673 52.2633C198.673 53.0091 198.526 53.7476 198.241 54.4366C197.955 55.1256 197.536 55.7515 197.009 56.2786C196.481 56.8057 195.854 57.2237 195.165 57.5086C194.475 57.7934 193.736 57.9397 192.99 57.9389H7.00982C5.50244 57.9405 4.05615 57.3434 2.98902 56.2791C1.92189 55.2147 1.3213 53.7702 1.31934 52.2633V7.0019C1.3213 5.49423 1.92165 4.04897 2.98857 2.98345C4.05548 1.91792 5.50176 1.31924 7.00982 1.31885H192.989C193.735 1.31885 194.474 1.46585 195.164 1.75147C195.854 2.03709 196.48 2.45572 197.008 2.98346C197.536 3.5112 197.954 4.13771 198.24 4.8272C198.525 5.51669 198.672 6.25566 198.672 7.0019L198.673 52.2633Z" fill="white"/>
<path d="M192.99 59.2593H7.00971C5.1528 59.2589 3.37187 58.5221 2.05772 57.2105C0.743567 55.8989 0.00353321 54.1197 0 52.2633L0 7.00341C0.00274704 5.14606 0.742292 3.36564 2.0564 2.05271C3.37051 0.739787 5.15187 0.00156767 7.00971 0L192.989 0C194.846 0.0023499 196.627 0.74082 197.941 2.05358C199.255 3.36634 199.995 5.14631 199.998 7.00341V52.2633C200.001 56.1221 196.852 59.2593 192.99 59.2593Z" fill="#A6A6A6"/>
<path d="M198.673 52.2633C198.673 53.0091 198.526 53.7476 198.241 54.4366C197.955 55.1256 197.536 55.7515 197.009 56.2786C196.481 56.8057 195.854 57.2237 195.165 57.5086C194.475 57.7934 193.736 57.9397 192.99 57.9389H7.00982C5.50244 57.9405 4.05615 57.3434 2.98902 56.2791C1.92189 55.2147 1.3213 53.7702 1.31934 52.2633V7.0019C1.3213 5.49423 1.92165 4.04897 2.98857 2.98345C4.05548 1.91792 5.50176 1.31924 7.00982 1.31885H192.989C193.735 1.31885 194.474 1.46585 195.164 1.75147C195.854 2.03709 196.48 2.45572 197.008 2.98346C197.536 3.5112 197.954 4.13771 198.24 4.8272C198.525 5.51669 198.672 6.25566 198.672 7.0019L198.673 52.2633Z" fill="black"/>
<path d="M44.6579 29.3177C44.6149 24.5416 48.5697 22.218 48.7505 22.1098C46.5108 18.8452 43.0393 18.3991 41.8194 18.3636C38.9037 18.0568 36.0755 20.1077 34.5903 20.1077C33.0754 20.1077 30.7882 18.3932 28.3232 18.4436C25.1511 18.4925 22.1836 20.3285 20.556 23.1797C17.1972 28.9932 19.7022 37.5363 22.9203 42.2353C24.53 44.5382 26.411 47.1063 28.8731 47.0159C31.2818 46.9181 32.1816 45.4821 35.0883 45.4821C37.9684 45.4821 38.8133 47.0159 41.3243 46.9581C43.9094 46.9181 45.5369 44.6464 47.0904 42.3242C48.9506 39.688 49.6977 37.0887 49.7273 36.9554C49.668 36.9346 44.7083 35.0408 44.6579 29.3177ZM39.9146 15.2723C41.2101 13.6526 42.0965 11.4491 41.8505 9.21289C39.9754 9.29588 37.6304 10.5095 36.2801 12.0937C35.0853 13.4896 34.0181 15.7777 34.2938 17.9294C36.4001 18.0864 38.5628 16.8669 39.9146 15.2723Z" fill="white"/>
<path d="M192.99 0H93.3735L132.392 59.2593H192.99C194.848 59.2577 196.629 58.5199 197.943 57.2076C199.257 55.8953 199.997 54.1157 200 52.2588V7.00341C199.997 5.14619 199.257 3.36599 197.943 2.05315C196.629 0.740304 194.848 0.00195894 192.99 0Z" fill="url(#paint0_linear_727_238)"/>
<path d="M79.5465 46.6853H76.1802L74.3363 40.8926H67.9269L66.1704 46.6853H62.8931L69.2446 26.9643H73.1668L79.5465 46.6853ZM73.7804 38.4623L72.1129 33.3127C71.9365 32.7866 71.6044 31.5478 71.1183 29.5976H71.059C70.8633 30.4364 70.5505 31.6752 70.1222 33.3127L68.4828 38.4623H73.7804ZM95.8487 39.4003C95.8487 41.8188 95.192 43.7304 93.8772 45.1338C92.7003 46.383 91.2373 47.0069 89.4926 47.0069C87.6086 47.0069 86.2538 46.3356 85.4312 44.99V52.4513H82.2709V37.139C82.2709 35.62 82.2309 34.0625 82.1538 32.4651H84.9331L85.1095 34.719H85.1688C86.2227 33.0208 87.8221 32.1717 89.9684 32.1717C91.6464 32.1717 93.0471 32.8341 94.1677 34.1604C95.2869 35.4896 95.8487 37.2353 95.8487 39.4003ZM92.6291 39.5159C92.6291 38.1318 92.3179 36.9908 91.6923 36.0913C91.009 35.1562 90.0915 34.6879 88.9412 34.6879C88.1615 34.6879 87.453 34.9487 86.8201 35.4629C86.1857 35.9816 85.7706 36.6588 85.5764 37.4976C85.4898 37.8112 85.4405 38.1341 85.4297 38.4593V40.8318C85.4297 41.8647 85.7469 42.7375 86.3813 43.4518C87.0157 44.1631 87.8399 44.5202 88.8538 44.5202C90.044 44.5202 90.9705 44.0594 91.633 43.1451C92.2971 42.2278 92.6291 41.0185 92.6291 39.5159ZM112.209 39.4003C112.209 41.8188 111.552 43.7304 110.237 45.1338C109.059 46.383 107.597 47.0069 105.851 47.0069C103.967 47.0069 102.612 46.3356 101.79 44.99V52.4513H98.6294V37.139C98.6294 35.62 98.5894 34.0625 98.5123 32.4651H101.292L101.468 34.719H101.527C102.58 33.0208 104.179 32.1717 106.327 32.1717C108.003 32.1717 109.404 32.8341 110.528 34.1604C111.645 35.4896 112.209 37.2353 112.209 39.4003ZM108.988 39.5159C108.988 38.1318 108.675 36.9908 108.049 36.0913C107.366 35.1562 106.451 34.6879 105.301 34.6879C104.521 34.6879 103.813 34.9487 103.177 35.4629C102.543 35.9816 102.129 36.6588 101.935 37.4976C101.839 37.8888 101.787 38.2074 101.787 38.4593V40.8318C101.787 41.8647 102.105 42.7375 102.737 43.4518C103.371 44.1616 104.195 44.5202 105.212 44.5202C106.404 44.5202 107.33 44.0594 107.992 43.1451C108.656 42.2278 108.988 41.0185 108.988 39.5159ZM130.5 41.1534C130.5 42.8324 129.913 44.1972 128.746 45.2508C127.463 46.4008 125.671 46.9772 123.373 46.9772C121.251 46.9772 119.549 46.5682 118.265 45.7487L118.996 43.1154C120.382 43.9364 121.904 44.3454 123.561 44.3454C124.753 44.3454 125.68 44.0757 126.341 43.5407C127.003 43.0043 127.338 42.287 127.338 41.392C127.338 40.5903 127.061 39.919 126.517 39.3722C125.97 38.8268 125.066 38.3185 123.796 37.8517C120.342 36.564 118.614 34.6805 118.614 32.2028C118.614 30.5846 119.224 29.2597 120.443 28.2239C121.661 27.1895 123.277 26.6724 125.287 26.6724C127.082 26.6724 128.577 26.985 129.765 27.6089L128.972 30.1844C127.854 29.5798 126.593 29.2775 125.182 29.2775C124.067 29.2775 123.192 29.5517 122.567 30.097C122.041 30.5846 121.774 31.1788 121.774 31.8842C121.774 32.6622 122.078 33.3083 122.682 33.8151C123.207 34.2819 124.165 34.7902 125.549 35.3355C127.248 36.0201 128.496 36.8174 129.295 37.7332C130.1 38.649 130.5 39.7915 130.5 41.1534ZM140.975 34.8361H137.492V41.7402C137.492 43.4963 138.106 44.3721 139.336 44.3721C139.901 44.3721 140.369 44.3246 140.74 44.2254L140.827 46.6245C140.204 46.8572 139.385 46.9743 138.369 46.9743C137.121 46.9743 136.146 46.5934 135.442 45.8317C134.741 45.07 134.388 43.7941 134.388 41.9981V34.8302H132.313V32.4591H134.388V29.8555L137.492 28.9189V32.4591H140.975V34.8361ZM156.661 39.4581C156.661 41.6439 156.035 43.4385 154.787 44.8418C153.481 46.2867 151.744 47.0069 149.578 47.0069C147.488 47.0069 145.827 46.3148 144.588 44.9322C143.348 43.5466 142.729 41.801 142.729 39.6952C142.729 37.4916 143.369 35.6867 144.645 34.2834C145.925 32.8785 147.647 32.1761 149.813 32.1761C151.9 32.1761 153.576 32.8696 154.845 34.2537C156.057 35.5963 156.661 37.3301 156.661 39.4581ZM153.385 39.5307C153.385 38.2281 153.103 37.1108 152.539 36.1757C151.876 35.0465 150.927 34.4819 149.698 34.4819C148.433 34.4819 147.462 35.0465 146.801 36.1757C146.234 37.1108 145.953 38.2474 145.953 39.59C145.953 40.8941 146.234 42.0144 146.801 42.9465C147.484 44.0757 148.437 44.6403 149.672 44.6403C150.88 44.6403 151.827 44.0638 152.512 42.9183C153.093 41.961 153.385 40.8363 153.385 39.5307ZM166.937 35.2436C166.609 35.1843 166.275 35.155 165.941 35.1562C164.83 35.1562 163.97 35.5741 163.365 36.4158C162.84 37.1567 162.577 38.0933 162.577 39.224V46.6853H159.416V36.9433C159.419 35.4506 159.389 33.9579 159.324 32.4666H162.077L162.193 35.1873H162.28C162.615 34.2522 163.14 33.4979 163.86 32.9333C164.52 32.44 165.321 32.1728 166.144 32.1717C166.436 32.1717 166.7 32.1924 166.934 32.2295L166.937 35.2436ZM181.071 38.9024C181.079 39.3827 181.04 39.8626 180.955 40.3354H171.475C171.51 41.7402 171.97 42.8161 172.85 43.557C173.649 44.2179 174.682 44.5499 175.951 44.5499C177.355 44.5499 178.636 44.3276 179.787 43.8786L180.282 46.0703C178.937 46.6571 177.348 46.9491 175.514 46.9491C173.308 46.9491 171.577 46.3 170.317 45.0048C169.06 43.7082 168.43 41.9655 168.43 39.7826C168.43 37.6398 169.016 35.8542 170.188 34.4301C171.415 32.9096 173.074 32.1494 175.161 32.1494C177.211 32.1494 178.763 32.9096 179.817 34.4301C180.652 35.6348 181.071 37.1286 181.071 38.9024ZM178.058 38.0829C178.08 37.1449 177.872 36.3372 177.444 35.6541C176.897 34.7739 176.055 34.3352 174.927 34.3352C173.894 34.3352 173.052 34.7635 172.412 35.623C171.885 36.3061 171.573 37.1271 171.476 38.08L178.058 38.0829Z" fill="white"/>
<path d="M67.0155 19.9918C66.1365 19.9918 65.3761 19.9488 64.7432 19.8762V10.3417C65.6284 10.205 66.523 10.1376 67.4187 10.1402C71.0429 10.1402 72.7119 11.9229 72.7119 14.8289C72.7119 18.1809 70.7405 19.9918 67.0155 19.9918ZM67.5462 11.3628C67.057 11.3628 66.6405 11.3924 66.2951 11.4635V18.7115C66.4819 18.7411 66.8406 18.7544 67.3446 18.7544C69.7192 18.7544 71.071 17.4029 71.071 14.8719C71.071 12.615 69.8481 11.3628 67.5462 11.3628ZM77.9132 20.0644C75.8707 20.0644 74.547 18.5396 74.547 16.4694C74.547 14.3117 75.8988 12.7735 78.0289 12.7735C80.0418 12.7735 81.3951 14.2258 81.3951 16.3552C81.3951 18.5396 80.0003 20.0644 77.9132 20.0644ZM77.9725 13.9086C76.8504 13.9086 76.1315 14.9578 76.1315 16.4249C76.1315 17.8638 76.8653 18.913 77.9577 18.913C79.0501 18.913 79.7839 17.7912 79.7839 16.3953C79.7839 14.9726 79.065 13.9086 77.9725 13.9086ZM93.0429 12.9173L90.8565 19.9059H89.4321L88.5264 16.8709C88.3012 16.1286 88.1137 15.3753 87.9646 14.614H87.935C87.8208 15.3757 87.6044 16.1389 87.3746 16.8709L86.4112 19.9059H84.9719L82.9145 12.9173H84.5109L85.3024 16.2397C85.4892 17.031 85.6463 17.7779 85.7767 18.4832H85.8064C85.9205 17.8949 86.1073 17.1599 86.3815 16.2545L87.3746 12.9187H88.6405L89.5907 16.1833C89.8204 16.9747 90.0072 17.7512 90.1524 18.4847H90.194C90.2947 17.766 90.4533 17.0028 90.6683 16.1833L91.5176 12.9187L93.0429 12.9173ZM101.092 19.9059H99.5383V15.8929C99.5383 14.657 99.0639 14.0376 98.1286 14.0376C97.2081 14.0376 96.5752 14.8289 96.5752 15.7492V19.9059H95.0217V14.9148C95.0217 14.2969 95.0069 13.6345 94.9639 12.9158H96.3306L96.4032 13.9946H96.4462C96.8642 13.2477 97.7121 12.7735 98.6622 12.7735C100.13 12.7735 101.093 13.8953 101.093 15.721L101.092 19.9059ZM105.375 19.9059H103.821V9.71045H105.375V19.9059ZM111.039 20.0644C108.998 20.0644 107.673 18.5396 107.673 16.4694C107.673 14.3117 109.025 12.7735 111.153 12.7735C113.168 12.7735 114.52 14.2258 114.52 16.3552C114.521 18.5396 113.125 20.0644 111.039 20.0644ZM111.097 13.9086C109.975 13.9086 109.256 14.9578 109.256 16.4249C109.256 17.8638 109.991 18.913 111.081 18.913C112.175 18.913 112.907 17.7912 112.907 16.3953C112.908 14.9726 112.191 13.9086 111.097 13.9086ZM120.644 19.9059L120.532 19.1012H120.49C120.016 19.7488 119.324 20.0644 118.446 20.0644C117.194 20.0644 116.304 19.1871 116.304 18.0076C116.304 16.2826 117.8 15.3905 120.39 15.3905V15.2616C120.39 14.3414 119.902 13.8805 118.938 13.8805C118.249 13.8805 117.644 14.0539 117.112 14.3991L116.796 13.3781C117.443 12.9751 118.249 12.7735 119.196 12.7735C121.022 12.7735 121.944 13.7367 121.944 15.6647V18.2387C121.944 18.9441 121.976 19.4909 122.045 19.9073L120.644 19.9059ZM120.431 16.4249C118.706 16.4249 117.84 16.8428 117.84 17.8342C117.84 18.5677 118.286 18.9263 118.906 18.9263C119.696 18.9263 120.431 18.3232 120.431 17.5037V16.4249ZM129.488 19.9059L129.415 18.7841H129.372C128.926 19.6317 128.176 20.0644 127.128 20.0644C125.443 20.0644 124.195 18.5825 124.195 16.4975C124.195 14.3117 125.489 12.772 127.255 12.772C128.191 12.772 128.853 13.0877 129.227 13.7219H129.258V9.71045H130.813V18.0224C130.813 18.6981 130.829 19.3309 130.871 19.9059H129.488ZM129.258 15.7936C129.258 14.8156 128.61 13.9813 127.622 13.9813C126.47 13.9813 125.766 15.0023 125.766 16.4397C125.766 17.849 126.497 18.8137 127.59 18.8137C128.567 18.8137 129.258 17.9646 129.258 16.9584V15.7936ZM140.672 20.0644C138.63 20.0644 137.307 18.5396 137.307 16.4694C137.307 14.3117 138.659 12.7735 140.787 12.7735C142.802 12.7735 144.153 14.2258 144.153 16.3552C144.155 18.5396 142.76 20.0644 140.672 20.0644ZM140.729 13.9086C139.609 13.9086 138.89 14.9578 138.89 16.4249C138.89 17.8638 139.624 18.913 140.715 18.913C141.809 18.913 142.541 17.7912 142.541 16.3953C142.544 14.9726 141.825 13.9086 140.729 13.9086ZM152.508 19.9059H150.953V15.8929C150.953 14.657 150.478 14.0376 149.543 14.0376C148.623 14.0376 147.991 14.8289 147.991 15.7492V19.9059H146.436V14.9148C146.436 14.2969 146.421 13.6345 146.378 12.9158H147.745L147.818 13.9946H147.861C148.277 13.2477 149.127 12.772 150.075 12.772C151.543 12.772 152.508 13.8938 152.508 15.7195V19.9059ZM162.959 14.082H161.25V17.4756C161.25 18.3395 161.55 18.7707 162.154 18.7707C162.429 18.7707 162.658 18.7411 162.844 18.6981L162.887 19.8777C162.586 19.9933 162.182 20.0511 161.681 20.0511C160.457 20.0511 159.725 19.3753 159.725 17.606V14.082H158.705V12.9173H159.725V11.6369L161.25 11.176V12.9158H162.959V14.082ZM171.183 19.9059H169.631V15.9225C169.631 14.6718 169.158 14.0391 168.221 14.0391C167.416 14.0391 166.666 14.5859 166.666 15.6928V19.9059H165.114V9.71045H166.666V13.9086H166.698C167.187 13.147 167.895 12.772 168.799 12.772C170.279 12.772 171.183 13.922 171.183 15.7492V19.9059ZM179.608 16.785H174.946C174.976 18.1083 175.852 18.8552 177.149 18.8552C177.838 18.8552 178.473 18.7396 179.033 18.5247L179.275 19.6035C178.614 19.891 177.835 20.0348 176.93 20.0348C174.743 20.0348 173.449 18.6537 173.449 16.5123C173.449 14.3695 174.774 12.7587 176.755 12.7587C178.541 12.7587 179.662 14.082 179.662 16.0811C179.672 16.317 179.654 16.5533 179.608 16.785ZM178.184 15.678C178.184 14.5992 177.64 13.8375 176.647 13.8375C175.754 13.8375 175.049 14.614 174.948 15.678H178.184Z" fill="white"/>
<defs>
<linearGradient id="paint0_linear_727_238" x1="146.685" y1="59.4166" x2="146.685" y2="-154.301" gradientUnits="userSpaceOnUse">
<stop stop-color="#1A1A1A" stop-opacity="0.1"/>
<stop offset="0.123" stop-color="#212121" stop-opacity="0.151"/>
<stop offset="0.308" stop-color="#353535" stop-opacity="0.227"/>
<stop offset="0.532" stop-color="#575757" stop-opacity="0.318"/>
<stop offset="0.783" stop-color="#858585" stop-opacity="0.421"/>
<stop offset="1" stop-color="#B3B3B3" stop-opacity="0.51"/>
</linearGradient>
</defs>
</svg>
