<svg width="69" height="66" viewBox="0 0 69 66" fill="none" xmlns="http://www.w3.org/2000/svg">
<path d="M43.4696 24.5992C44.1966 25.3323 44.8179 25.932 44.8575 25.932C44.884 25.932 44.3288 25.3323 43.6017 24.5992C42.8747 23.8662 42.2535 23.2665 42.2138 23.2665C42.1874 23.2665 42.7425 23.8662 43.4696 24.5992Z" fill="#ECC140"/>
<path d="M62.1737 25.3589L60.918 26.665L62.2134 25.3989C62.914 24.7059 63.4956 24.1195 63.4956 24.1061C63.4956 23.9995 63.337 24.1594 62.1737 25.3589Z" fill="#ECC140"/>
<path d="M10.4235 39.8194C10.3839 39.9127 10.3706 44.7639 10.3839 50.5881L10.4235 61.1835H14.0586H17.6938L14.0983 61.1568L10.4896 61.1169V50.4548V39.7927L14.1644 39.7527L17.8259 39.7261L14.1512 39.6861C11.3092 39.6728 10.4632 39.6994 10.4235 39.8194Z" fill="#ECC140"/>
<path d="M6.28506 28.0556C6.20678 28.1053 6.10894 28.4632 6.06002 28.9405C5.89368 30.4318 5.27726 31.6945 4.24011 32.6291C3.3106 33.4742 2.29302 33.9117 0.854707 34.0906C0.541605 34.1204 0.21872 34.2199 0.140444 34.2994C-0.221579 34.6673 0.160013 35.224 0.786216 35.224C1.97991 35.224 3.4965 35.9001 4.42602 36.8546C5.40446 37.8389 6.0698 39.3203 6.0698 40.5134C6.0698 40.8614 6.12851 41.0503 6.26549 41.1895C6.71557 41.6468 7.24393 41.279 7.24393 40.5134C7.24393 39.3303 7.90927 37.8389 8.86814 36.8745C9.81723 35.9001 11.3045 35.234 12.5079 35.224C13.1733 35.224 13.5549 34.6673 13.1439 34.3093C13.0461 34.2298 12.5373 34.0906 11.9992 34.0111C10.6685 33.7923 9.77809 33.335 8.85836 32.4004C7.86035 31.3863 7.24393 29.9944 7.24393 28.7814C7.24393 28.2942 7.01889 27.9661 6.67643 27.9661C6.52967 27.9661 6.35355 28.0059 6.28506 28.0556Z" fill="#810505"/>
<path d="M54.1093 0.10343C54.0501 0.163127 54.0041 0.322319 54.0041 0.481511C53.9975 1.70861 53.1034 3.10154 51.9593 3.67198C51.4794 3.91077 50.7496 4.10313 50.3419 4.10976C50.0987 4.10976 49.9277 4.25568 49.9277 4.47457C49.9277 4.69346 50.0987 4.83939 50.3485 4.83939C50.789 4.83939 51.361 4.99195 51.9002 5.25063C53.1099 5.83434 53.9975 7.1941 54.0041 8.46764C54.0041 8.62683 54.0501 8.78602 54.1093 8.84572C54.2342 8.97174 54.5564 8.98501 54.6419 8.87225C54.6813 8.82582 54.7405 8.52733 54.7799 8.21558C54.9837 6.59713 56.0489 5.37003 57.5874 4.97205C57.8701 4.89909 58.2251 4.83939 58.3763 4.83939C58.6985 4.83939 58.8037 4.75316 58.8037 4.46794C58.8037 4.18935 58.7182 4.13629 58.1988 4.08323C56.3447 3.8975 54.9574 2.50457 54.7602 0.627436C54.7339 0.36875 54.6813 0.123329 54.6484 0.0768978C54.5498 -0.0358631 54.2342 -0.0225971 54.1093 0.10343Z" fill="#810505"/>
<path d="M54.8438 48.1328H42.3438C41.8777 48.1322 41.431 47.9468 41.1015 47.6173C40.772 47.2878 40.5866 46.841 40.5859 46.375V45.9484C42.7484 44.7922 54.6484 37.9883 54.6484 28.2641C54.6488 26.5605 54.122 24.8986 53.1404 23.5062C52.1588 22.1139 50.7705 21.0593 49.1659 20.4872C47.5613 19.9151 45.8189 19.8535 44.1779 20.3108C42.5369 20.7681 41.0775 21.7219 40 23.0414C38.9225 21.7219 37.4631 20.7681 35.8221 20.3108C34.1811 19.8535 32.4387 19.9151 30.8341 20.4872C29.2295 21.0593 27.8412 22.1139 26.8596 23.5062C25.878 24.8986 25.3512 26.5605 25.3516 28.2641C25.3516 37.9883 37.2516 44.7922 39.4141 45.9484V46.375C39.4151 47.1517 39.7241 47.8963 40.2733 48.4455C40.8225 48.9947 41.5671 49.3037 42.3438 49.3047H54.8438C55.31 49.3047 55.7571 49.4899 56.0867 49.8195C56.4164 50.1492 56.6016 50.5963 56.6016 51.0625C56.6016 51.5287 56.4164 51.9758 56.0867 52.3055C55.7571 52.6351 55.31 52.8203 54.8438 52.8203H25.1562C24.3792 52.8203 23.6341 53.129 23.0846 53.6784C22.5352 54.2278 22.2266 54.973 22.2266 55.75C22.2266 56.527 22.5352 57.2722 23.0846 57.8216C23.6341 58.371 24.3792 58.6797 25.1562 58.6797H37.6562C38.1223 58.6803 38.569 58.8657 38.8985 59.1952C39.228 59.5247 39.4134 59.9715 39.4141 60.4375H40.5859C40.5849 59.6608 40.2759 58.9162 39.7267 58.367C39.1775 57.8178 38.4329 57.5088 37.6562 57.5078H25.1562C24.69 57.5078 24.2429 57.3226 23.9133 56.993C23.5836 56.6633 23.3984 56.2162 23.3984 55.75C23.3984 55.2838 23.5836 54.8367 23.9133 54.507C24.2429 54.1774 24.69 53.9922 25.1562 53.9922H54.8438C55.6208 53.9922 56.3659 53.6835 56.9154 53.1341C57.4648 52.5847 57.7734 51.8395 57.7734 51.0625C57.7734 50.2855 57.4648 49.5403 56.9154 48.9909C56.3659 48.4415 55.6208 48.1328 54.8438 48.1328Z" fill="#BD0D0D"/>
<path d="M59.643 14.5391H55.4289C54.0275 14.5404 52.6671 15.0126 51.5664 15.88C50.4656 16.7474 49.6884 17.9596 49.3594 19.3219C51.1326 19.9138 52.6902 21.0189 53.8346 22.4971C54.979 23.9753 55.6587 25.76 55.7875 27.625H58.1008C59.0497 27.6248 59.9597 27.2477 60.6307 26.5768C61.3017 25.9058 61.6787 24.9958 61.6789 24.0469H56.2102V22.875H59.6633C60.6122 22.8748 61.5222 22.4977 62.1932 21.8268C62.8642 21.1558 63.2412 20.2458 63.2414 19.2969H56.9914V18.125H61.2258C62.1748 18.125 63.0849 17.748 63.7559 17.077C64.4269 16.406 64.8039 15.4959 64.8039 14.5469V12.9844C63.2747 14.0004 61.479 14.5414 59.643 14.5391Z" fill="#BD0D0D"/>
<path d="M30.6398 19.3219C30.3109 17.9596 29.5336 16.7474 28.4328 15.88C27.3321 15.0126 25.9717 14.5404 24.5703 14.5391H20.3562C18.5194 14.5391 16.7237 13.9954 15.1953 12.9766V14.5391C15.1953 15.488 15.5723 16.3982 16.2433 17.0692C16.9143 17.7402 17.8245 18.1172 18.7734 18.1172H23.0078V19.2891H16.7578C16.758 20.238 17.1351 21.148 17.806 21.819C18.477 22.4899 19.387 22.867 20.3359 22.8672H23.7891V24.0391H18.3203C18.3194 24.5096 18.4113 24.9757 18.5906 25.4106C18.77 25.8456 19.0334 26.2409 19.3658 26.574C19.6981 26.9071 20.0929 27.1713 20.5275 27.3517C20.962 27.532 21.4279 27.6249 21.8984 27.625H24.2117C24.3405 25.76 25.0202 23.9753 26.1646 22.4971C27.309 21.0189 28.8666 19.9138 30.6398 19.3219Z" fill="#BD0D0D"/>
</svg>
