<svg width="68" height="68" viewBox="0 0 68 68" fill="none" xmlns="http://www.w3.org/2000/svg">
<path d="M34.0008 8.57846C24.3762 8.57846 16.5998 16.4246 16.5998 26.0841V26.6769C16.5649 27.2 16.5998 28.1067 16.9136 29.4667C17.2972 31.3497 17.9598 33.1282 18.8664 34.7323C21.1331 39.5097 25.5269 46.6236 34.0357 56.9805C42.37 46.8677 46.6941 39.8236 48.9259 35.0462C50.4951 32.4308 51.3669 29.3621 51.3669 26.0841C51.4018 16.4246 43.6254 8.57846 34.0008 8.57846ZM34.0008 30.5128C30.688 30.5128 28.0028 27.8277 28.0028 24.5149C28.0377 21.1672 30.688 18.4821 34.0008 18.4821C37.3136 18.4821 39.9987 21.1672 39.9987 24.48C39.9987 27.8277 37.3136 30.5128 34.0008 30.5128Z" fill="#BD0D0D"/>
<path d="M52.0988 34.1395C51.9942 34.1046 51.8896 34.0349 51.8198 34C51.506 34.6974 51.1921 35.36 50.8085 35.9877C50.4598 36.7549 50.0762 37.5221 49.6229 38.359C53.4239 40.2072 55.6208 42.6133 55.6208 44.88C55.6208 48.8205 48.9603 53.1795 38.9172 54.2954C37.906 55.6205 36.8249 56.9456 35.6742 58.3405L34.7675 59.4564C41.2885 59.3518 47.426 58.0267 52.0988 55.6554C57.5039 52.9354 60.5029 49.1344 60.5029 44.9149C60.5029 40.6954 57.5388 36.8595 52.0988 34.1395ZM29.2229 54.2954C19.1101 53.2144 12.3798 48.8554 12.3798 44.88C12.3798 42.6133 14.5767 40.2072 18.3778 38.359C17.8896 37.4523 17.4362 36.5456 17.0178 35.7087C16.7039 35.1508 16.4249 34.5928 16.146 34C16.0414 34.0349 15.9716 34.1046 15.867 34.1395C10.4619 36.8595 7.46289 40.6605 7.46289 44.88C7.46289 49.0995 10.4619 52.9005 15.867 55.6205C20.6096 57.9918 26.7819 59.3518 33.3378 59.4215L32.4311 58.3056C31.3152 56.9456 30.2342 55.5856 29.2229 54.2954Z" fill="#BD0D0D"/>
</svg>
