<svg width="66" height="66" viewBox="0 0 66 66" fill="none" xmlns="http://www.w3.org/2000/svg">
<g clip-path="url(#clip0_1322_4917)">
<path d="M5.3619 0.244933C4.25331 0.979699 4.18885 2.79728 5.25878 3.54493C5.40057 3.64806 6.8701 4.20235 8.5201 4.76954C11.7814 5.89103 12.5033 6.00704 13.1994 5.55587C14.308 4.8211 14.3724 3.00353 13.3025 2.25587C13.1607 2.15275 11.6912 1.59845 10.0283 1.03126C6.76698 -0.0902229 6.05799 -0.206238 5.3619 0.244933Z" fill="#BD0D0D"/>
<path d="M24.1052 0.20625C23.7185 0.309375 22.9064 0.631641 22.3006 0.915235C21.4111 1.35352 20.9986 1.66289 20.0834 2.57813C19.1166 3.54492 18.8845 3.88008 18.3302 5.04023C17.3634 7.06406 17.0412 8.81719 17.2732 10.9828C17.8017 16.0746 21.2435 20.9473 27.7791 25.8328C31.2982 28.4625 32.0072 28.875 33.0256 28.875C33.8506 28.875 34.4693 28.5398 36.7767 26.9156C44.3049 21.566 48.172 16.4227 48.7263 10.9828C48.9584 8.81719 48.6361 7.06406 47.6693 5.04023C47.115 3.88008 46.883 3.54492 45.9162 2.57813C44.1502 0.799219 42.2552 4.17233e-07 39.8318 4.17233e-07C37.5244 4.17233e-07 35.8486 0.683204 34.0955 2.34609L32.9998 3.37734L31.9041 2.34609C30.7181 1.21172 29.5451 0.541407 28.1658 0.19336C27.199 -0.0515621 25.0591 -0.0515621 24.1052 0.20625Z" fill="#BD0D0D"/>
<path d="M55.9969 1.00547C54.4242 1.55977 52.9934 2.07539 52.8 2.17851C52.2586 2.475 51.9492 3.09375 51.9492 3.88008C51.9492 4.65351 52.207 5.15625 52.8 5.55586C53.4961 6.01992 54.218 5.89101 57.4793 4.76953C59.1293 4.20234 60.5988 3.64805 60.7406 3.55781C61.2434 3.19687 61.4883 2.68125 61.4883 1.95937C61.4883 1.16016 61.2562 0.696093 60.6633 0.283593C59.9414 -0.219141 59.2066 -0.103125 55.9969 1.00547Z" fill="#BD0D0D"/>
<path d="M8.55937 14.9273C6.98672 15.4816 5.55586 15.9973 5.3625 16.1004C4.82109 16.3969 4.51172 17.0156 4.51172 17.802C4.51172 18.5754 4.76953 19.0781 5.3625 19.4777C6.05859 19.9418 6.78047 19.8129 10.0418 18.6914C11.6918 18.1242 13.1613 17.5699 13.3031 17.4797C13.8059 17.1187 14.0508 16.6031 14.0508 15.8555C14.0508 15.0562 13.793 14.5664 13.2 14.1668C12.5039 13.7156 11.6918 13.8445 8.55937 14.9273Z" fill="#BD0D0D"/>
<path d="M52.7994 14.1668C51.6908 14.9016 51.6264 16.7192 52.6963 17.4668C52.8381 17.5699 54.3076 18.1242 55.9576 18.6914C59.2189 19.8129 59.9408 19.9289 60.6369 19.4777C61.7455 18.743 61.8099 16.9254 60.74 16.1777C60.5982 16.0746 59.1287 15.5203 57.4658 14.9531C54.2045 13.8317 53.4955 13.7156 52.7994 14.1668Z" fill="#BD0D0D"/>
<path d="M22.4036 35.8746C20.7278 36.4547 19.5548 37.5117 18.7813 39.1488C18.4204 39.9223 18.3688 40.1801 18.3302 41.3789C18.2915 42.5133 18.3302 42.8742 18.5622 43.5703C19.1938 45.4395 20.4184 46.7156 22.236 47.3988L23.0095 47.6824H19.168L15.3138 47.6953L10.9696 43.4672C6.09696 38.7363 5.98094 38.6461 4.35672 38.5688C2.61649 38.4785 1.2243 39.2133 0.450863 40.6184C-0.0647619 41.5852 -0.154996 43.1578 0.257504 44.2406C0.605551 45.1945 0.682894 45.2719 9.12625 53.3027L16.113 59.9543V62.2359C16.113 64.8012 16.2032 65.175 17.0024 65.7035L17.4407 66H24.247H31.0661V56.8477V47.6953L28.3977 47.6824H25.7165L26.4899 47.3988C28.2817 46.7285 29.545 45.4137 30.1766 43.5445C30.3958 42.8613 30.4345 42.5133 30.3958 41.3789C30.3442 39.8449 30.0606 39.0457 29.1325 37.8211C27.7016 35.9133 24.7755 35.0754 22.4036 35.8746Z" fill="#BD0D0D"/>
<path d="M39.6773 35.8746C36.3902 37.0219 34.7273 40.5152 35.9004 43.8152C36.4676 45.4266 37.8082 46.7672 39.5098 47.3988L40.2832 47.6824H37.6148L34.9336 47.6953V56.8477V66H41.7527H48.559L48.9844 65.7164C49.7965 65.1621 49.8867 64.8012 49.8867 62.2359V59.9672L56.8863 53.3027C65.3168 45.259 65.3941 45.1945 65.7422 44.2406C66.1547 43.1578 66.0645 41.5852 65.5488 40.6184C64.7754 39.2133 63.3832 38.4785 61.643 38.5688C60.0187 38.6461 59.9027 38.7363 55.0301 43.4672L50.6859 47.6953L46.7672 47.6824H42.8613L43.5961 47.4504C45.1816 46.9348 46.3676 45.8648 47.1668 44.2148C47.618 43.2738 47.6309 43.2094 47.6309 41.7012C47.6309 40.3863 47.5793 40.0383 47.3344 39.4195C46.7156 37.8855 45.3621 36.532 43.8668 35.952C42.7195 35.5137 40.8246 35.475 39.6773 35.8746Z" fill="#BD0D0D"/>
</g>
<defs>
<clipPath id="clip0_1322_4917">
<rect width="66" height="66" fill="white"/>
</clipPath>
</defs>
</svg>
