<svg width="78" height="78" viewBox="0 0 78 78" fill="none" xmlns="http://www.w3.org/2000/svg">
<path d="M6.25157 31.8494C6.55214 31.8489 6.84194 31.7375 7.06534 31.5364C7.28873 31.3353 7.42996 31.0588 7.4619 30.7599C7.60711 29.3321 8.05091 27.9508 8.7645 26.7056C8.91873 26.4261 8.95718 26.0973 8.87159 25.7898C8.786 25.4822 8.5832 25.2205 8.30676 25.0609C8.03032 24.9012 7.70229 24.8564 7.39314 24.936C7.08399 25.0156 6.81839 25.2132 6.6534 25.4865C5.98336 26.7552 3.63187 31.6309 6.25157 31.8494Z" fill="#BD0D0D"/>
<path d="M9.18683 39.671C8.61139 38.3478 8.15417 36.9764 7.82053 35.5727C7.74268 35.263 7.5465 34.9962 7.27411 34.8295C7.00172 34.6629 6.67485 34.6098 6.3637 34.6815C6.05255 34.7532 5.78193 34.9441 5.60996 35.2131C5.438 35.4822 5.3784 35.8079 5.44396 36.1204C5.81041 37.6651 6.31262 39.1744 6.94474 40.6307C7.00776 40.7779 7.09915 40.9113 7.21371 41.0232C7.32826 41.1351 7.46373 41.2233 7.61239 41.2828C7.76104 41.3424 7.91997 41.372 8.0801 41.3702C8.24022 41.3683 8.39841 41.3349 8.54562 41.2719C8.69284 41.2089 8.8262 41.1175 8.9381 41.0029C9.04999 40.8884 9.13823 40.7529 9.19777 40.6042C9.25731 40.4556 9.28698 40.2966 9.2851 40.1365C9.28322 39.9764 9.24984 39.8182 9.18683 39.671Z" fill="#BD0D0D"/>
<path d="M11.0805 43.4514C11.0016 43.3116 10.8958 43.1888 10.7693 43.09C10.6428 42.9912 10.4981 42.9183 10.3433 42.8756C10.1886 42.8329 10.027 42.8211 9.8677 42.841C9.70843 42.8609 9.55465 42.9121 9.41519 42.9916C9.27574 43.0711 9.15336 43.1773 9.05507 43.3042C8.95678 43.4311 8.88453 43.5762 8.84244 43.7311C8.80036 43.886 8.78929 44.0477 8.80985 44.2069C8.83041 44.3661 8.88221 44.5196 8.96228 44.6588C9.63204 45.8352 10.3988 47.0592 11.2401 48.2951C11.4247 48.556 11.7042 48.7339 12.0187 48.7908C12.3331 48.8476 12.6573 48.7787 12.9215 48.5989C13.1857 48.4192 13.3687 48.1429 13.4313 47.8295C13.4938 47.5162 13.4309 47.1908 13.2559 46.9234C12.4509 45.7399 11.7193 44.5718 11.0805 43.4514Z" fill="#BD0D0D"/>
<path d="M15.9993 50.6634C15.7971 50.4163 15.506 50.2583 15.1885 50.2235C14.8711 50.1887 14.5527 50.2797 14.3016 50.4771C14.0506 50.6745 13.887 50.9625 13.846 51.2792C13.805 51.5959 13.8899 51.9161 14.0824 52.1709C15.0307 53.3782 16.0517 54.607 17.1174 55.8239C17.2316 55.955 17.3727 56.0601 17.5311 56.132C17.6895 56.2039 17.8615 56.2409 18.0354 56.2406C18.2681 56.2371 18.495 56.1676 18.6896 56.04C18.8842 55.9125 19.0386 55.7323 19.1347 55.5203C19.2308 55.3084 19.2647 55.0735 19.2324 54.8431C19.2 54.6126 19.1029 54.3961 18.9522 54.2188C17.9151 53.0328 16.9215 51.8374 15.9993 50.6634Z" fill="#BD0D0D"/>
<path d="M14.5399 29.9897L24.428 15.7365C24.5347 15.5761 24.6023 15.3929 24.6255 15.2017C24.6487 15.0105 24.6268 14.8165 24.5617 14.6352C24.4965 14.4539 24.3898 14.2904 24.2502 14.1577C24.1105 14.025 23.9418 13.9268 23.7574 13.871C17.8586 13.9381 7.58484 14.5476 6.32208 14.4805C6.11702 14.4405 5.90512 14.4539 5.70675 14.5195C5.50838 14.585 5.33021 14.7005 5.18938 14.8548C5.04854 15.0092 4.94978 15.1971 4.90258 15.4006C4.85538 15.6042 4.86133 15.8164 4.91987 16.017C5.05408 16.529 5.85876 16.8705 5.84655 16.8705C6.34649 17.0412 9.17517 18.5286 12.1014 20.1503C11.2699 20.6526 10.479 21.2193 9.73599 21.8451C9.61416 21.949 9.51403 22.076 9.44134 22.2187C9.36865 22.3615 9.32482 22.5171 9.31237 22.6768C9.29991 22.8365 9.31908 22.9971 9.36877 23.1493C9.41846 23.3016 9.49769 23.4426 9.60193 23.5642C10.7646 24.7732 11.8584 23.0837 12.9061 22.5157L12.3209 29.185C12.3033 29.4506 12.3725 29.7148 12.5181 29.9378C12.6636 30.1607 12.8777 30.3303 13.128 30.4211C13.3783 30.5119 13.6513 30.5189 13.9059 30.4411C14.1606 30.3633 14.3831 30.2049 14.5399 29.9897Z" fill="#BD0D0D"/>
<path d="M37.2542 44.0721L39.0099 34.2449L35.3888 30.0872C35.1856 29.8551 35.0788 29.5542 35.0901 29.246C35.1015 28.9378 35.2301 28.6455 35.4497 28.429L40.4608 23.4666L42.7531 18.0531L43.9235 15.2976C40.0392 16.0313 36.3887 17.6898 33.2809 20.1328C30.1731 22.5759 27.6995 25.7315 26.0693 29.3328C24.4391 32.934 23.7003 36.875 23.9154 40.8222C24.1305 44.7694 25.2932 48.6067 27.305 52.0095C28.4755 51.0651 35.9034 45.1582 37.2542 44.0721Z" fill="#BD0D0D"/>
<path d="M55.1046 28.429C55.2198 28.5419 55.3115 28.6766 55.3743 28.8252C55.4371 28.9738 55.4697 29.1334 55.4704 29.2947V33.4524C55.5806 33.5171 54.2898 37.1031 54.2511 37.2809L63.8833 40.9508C65.5832 40.3669 71.4843 38.3486 73.0887 37.8051C72.7465 32.9033 70.9483 28.2153 67.9245 24.342C64.9006 20.4688 60.789 17.5869 56.1166 16.0657L54.812 18.2116L51.0322 24.4055L55.1046 28.429Z" fill="#BD0D0D"/>
<path d="M70.6373 41.219L64.2606 43.4015C63.9887 43.5041 63.6881 43.4997 63.4193 43.3893L52.2997 39.1341C52.0048 39.0233 51.7641 38.803 51.6278 38.519C51.4915 38.2351 51.4701 37.9094 51.5681 37.6101L53.0312 33.2573V29.8068L48.6297 25.4662C48.4347 25.2709 48.3107 25.0159 48.2775 24.7418C48.2444 24.4678 48.304 24.1906 48.4468 23.9544L52.3118 17.6264L53.6652 15.4073C51.9751 15.0384 50.2498 14.8544 48.5199 14.8587C47.9225 14.8587 47.3129 14.883 46.7276 14.9318L45.6425 17.4923L42.6188 24.6371C42.5552 24.7832 42.4641 24.9157 42.3505 25.0273L37.9734 29.3557L41.2288 33.0866C41.3479 33.2238 41.4349 33.3858 41.4834 33.5609C41.5319 33.736 41.5407 33.9197 41.5092 34.0986L39.5706 44.9499C39.5211 45.2436 39.3647 45.5085 39.1316 45.6937C37.8122 46.7479 29.8054 53.1324 28.6582 54.0578C30.3163 56.3057 32.3399 58.2593 34.6447 59.8372L36.4493 58.1058L43.46 51.4121C43.64 51.2397 43.8684 51.1263 44.1146 51.0871C44.3608 51.0478 44.6131 51.0846 44.8378 51.1926L49.6295 53.5214L55.7867 46.7911C55.9709 46.5847 56.2204 46.4479 56.4934 46.4035C56.7664 46.3592 57.0463 46.4099 57.2864 46.5472L62.4073 49.4612C62.63 49.5839 62.8058 49.7768 62.9072 50.0099L64.9434 54.3992L66.0529 56.789C70.3906 52.4029 72.9157 46.543 73.1246 40.3777L70.6373 41.219Z" fill="#BD0D0D"/>
<path d="M60.8597 51.3877L56.9337 49.1564L50.8252 55.8379C50.6472 56.0328 50.4112 56.1653 50.1522 56.2158C49.8931 56.2663 49.6246 56.2322 49.3865 56.1184L44.5338 53.7653L38.6691 59.3738L36.8037 61.154C41.1085 63.4901 46.0133 64.4863 50.8884 64.0149C55.7635 63.5434 60.3865 61.6258 64.1639 58.5081C63.4947 57.0397 61.5688 52.9079 60.8597 51.3877Z" fill="#BD0D0D"/>
</svg>
